<svg width="407" height="65" viewBox="0 0 407 65" fill="none" xmlns="http://www.w3.org/2000/svg">
<path d="M15.1359 10.472V49.72C15.1359 58.96 15.3119 60.104 20.9439 60.72L23.3199 60.984C23.8479 61.424 23.6719 62.92 23.1439 63.184C18.1279 63.008 15.2239 62.92 11.7039 62.92C8.0079 62.92 4.8399 63.008 0.967899 63.184C0.439899 62.92 0.263899 61.512 0.791899 60.984L2.6399 60.72C7.7439 60.016 7.9199 58.96 7.9199 49.72V17.248C7.9199 9.768 7.7439 8.272 3.7839 7.832L0.615899 7.48C-0.000100732 6.952 0.0878991 5.632 0.791899 5.28C5.4559 4.664 10.9119 4.576 18.2159 4.576C25.5199 4.576 30.9759 5.544 35.1119 8.096C39.1599 10.648 42.1519 15.224 42.1519 21.296C42.1519 29.392 37.1359 33.44 33.3519 35.288C29.4799 37.136 24.8159 37.928 21.2079 37.928C20.5919 37.664 20.5919 36.344 21.1199 36.168C30.6239 34.408 34.0559 29.04 34.0559 21.384C34.0559 12.848 29.0399 7.304 19.8879 7.304C15.2239 7.304 15.1359 7.656 15.1359 10.472ZM48.1215 48.488L58.5935 44.704C59.9135 44.264 60.0895 43.472 60.0895 42.152L60.1775 38.104C60.2655 34.848 59.2095 30.448 53.7535 30.448C51.2895 30.448 48.2975 31.68 48.1215 34.408C48.0335 35.816 47.9455 36.872 47.2415 37.4C45.9215 38.456 43.5455 39.072 42.2255 39.072C41.4335 39.072 40.9935 38.632 40.9935 37.84C40.9935 33.264 50.9375 27.016 57.3615 27.016C63.6975 27.016 66.7775 30.712 66.5135 37.312L65.9855 52.624C65.8095 56.672 66.6015 60.28 70.0335 60.28C70.9135 60.28 71.7055 60.016 72.2335 59.752C72.6735 59.488 73.1135 59.136 73.3775 59.136C73.7295 59.136 73.9935 59.664 73.9935 60.28C73.9935 60.72 70.9135 64.152 66.6015 64.152C64.4895 64.152 62.3775 63.36 60.8815 61.424C60.5295 60.896 60.0015 60.192 59.4735 60.192C58.8575 60.192 57.8015 60.984 56.0415 61.952C54.1055 63.008 52.1695 64.152 49.7055 64.152C47.1535 64.152 45.0415 63.448 43.5455 62.128C41.8735 60.632 40.8175 58.432 40.8175 55.968C40.8175 52.536 42.4895 50.512 48.1215 48.488ZM47.5935 54.912C47.5935 56.408 48.6495 60.192 53.1375 60.192C54.8975 60.192 57.6255 58.872 58.5055 57.992C59.5615 56.936 59.5615 55.704 59.6495 53.856L59.8255 48.664C59.8255 47.696 59.4735 47.52 58.9455 47.52C58.4175 47.52 56.9215 47.872 55.3375 48.4C50.1455 50.16 47.5935 51.48 47.5935 54.912ZM94.2596 27.016C96.2836 27.016 99.7156 27.456 102.092 28.512C102.796 29.128 103.412 30.536 103.412 32.032C103.412 33.616 102.532 35.288 101.476 35.288C101.036 35.288 100.596 35.112 100.244 34.672C98.3076 32.296 95.0516 30.008 91.4436 30.008C85.2836 30.008 79.2996 34.848 79.2996 44.176C79.2996 51.04 84.0516 59.224 93.4676 59.224C98.5716 59.224 101.212 56.936 103.236 53.944C103.94 53.768 104.732 54.384 104.82 55.176C101.828 61.688 95.2276 64.152 90.1236 64.152C85.4596 64.152 81.1476 62.656 78.0676 59.664C74.9876 56.672 72.9636 52.36 72.9636 46.64C72.9636 37.136 79.6516 27.016 94.2596 27.016ZM110.134 53.064V37.664C110.134 34.232 110.134 33.792 107.758 32.208L106.966 31.68C106.614 31.328 106.614 30.36 107.054 30.096C109.078 29.392 114.094 27.104 116.118 25.784C116.558 25.784 116.91 25.96 116.998 26.312C116.822 29.392 116.646 33.616 116.646 37.224V53.064C116.646 59.4 116.822 60.28 119.99 60.72L121.838 60.984C122.454 61.424 122.278 62.92 121.662 63.184C119.022 63.008 116.47 62.92 113.39 62.92C110.222 62.92 107.582 63.008 105.118 63.184C104.502 62.92 104.326 61.424 104.942 60.984L106.79 60.72C110.046 60.28 110.134 59.4 110.134 53.064ZM113.038 8.008C115.678 8.008 117.438 10.12 117.438 12.584C117.438 15.752 115.238 17.16 112.774 17.16C110.046 17.16 108.286 15.136 108.286 12.76C108.286 9.856 110.398 8.008 113.038 8.008ZM128.952 53.064V34.496C128.952 32.12 128.952 31.944 127.192 31.944H124.112C123.584 31.592 123.496 30.8 123.848 30.272L127.632 28.424C128.336 28.072 128.952 27.544 128.952 26.664C128.952 21.648 129.656 16.544 131.68 11.88C133.528 7.392 138.896 2.86102e-06 148.752 2.86102e-06C154.736 2.86102e-06 159.664 3.168 159.664 6.864C159.664 9.504 157.376 10.472 156.056 10.472C154.824 10.472 154.208 9.856 153.768 9.15201C151.216 4.84 147.784 3.344 145.496 3.344C138.632 3.344 135.464 10.912 135.464 24.552V25.52C135.464 27.72 135.64 28.248 137.136 28.248H146.992C150.864 28.248 156.408 27.72 158.52 26.928C158.872 26.928 159.224 27.104 159.4 27.368C159.224 30.536 159.048 34.76 159.048 38.368V53.064C159.048 59.4 159.224 60.28 162.392 60.72L164.24 60.984C164.856 61.424 164.68 62.92 164.064 63.184C161.424 63.008 158.872 62.92 155.792 62.92C152.624 62.92 149.984 63.008 147.52 63.184C146.904 62.92 146.728 61.424 147.344 60.984L149.192 60.72C152.448 60.28 152.536 59.4 152.536 53.064V37.752C152.536 32.384 151.92 31.944 148.136 31.944H137.136C135.64 31.944 135.464 32.56 135.464 34.672V53.064C135.464 59.4 135.64 60.456 138.808 60.72L141.624 60.984C142.24 61.424 142.064 62.92 141.448 63.184C137.84 63.008 135.288 62.92 132.208 62.92C129.04 62.92 126.4 63.008 123.76 63.184C123.144 62.92 122.968 61.424 123.584 60.984L125.608 60.72C128.864 60.28 128.952 59.4 128.952 53.064ZM187.512 27.016C189.536 27.016 192.968 27.456 195.344 28.512C196.048 29.128 196.664 30.536 196.664 32.032C196.664 33.616 195.784 35.288 194.728 35.288C194.288 35.288 193.848 35.112 193.496 34.672C191.56 32.296 188.304 30.008 184.696 30.008C178.536 30.008 172.552 34.848 172.552 44.176C172.552 51.04 177.304 59.224 186.72 59.224C191.824 59.224 194.464 56.936 196.488 53.944C197.192 53.768 197.984 54.384 198.072 55.176C195.08 61.688 188.48 64.152 183.376 64.152C178.712 64.152 174.4 62.656 171.32 59.664C168.24 56.672 166.216 52.36 166.216 46.64C166.216 37.136 172.904 27.016 187.512 27.016ZM224.506 49.72V16.28C224.506 9.768 224.154 8.096 220.194 7.744L217.378 7.48C216.674 6.952 216.762 5.632 217.466 5.28C222.218 4.84 228.202 4.576 236.386 4.576C241.93 4.576 247.21 5.016 251.17 7.04C254.954 8.888 257.858 12.408 257.858 18.04C257.858 24.376 254.162 27.632 248.882 30.096C248.882 30.976 249.586 31.24 250.554 31.416C255.306 32.296 262.346 36.696 262.346 46.112C262.346 56.32 254.778 63.184 238.938 63.184C236.386 63.184 232.074 62.92 228.378 62.92C224.506 62.92 221.514 63.096 218.258 63.184C217.73 62.92 217.554 61.512 218.082 60.984L219.666 60.72C224.33 59.928 224.506 58.96 224.506 49.72ZM231.722 35.376V48.4C231.722 51.568 231.898 56.056 233.57 57.992C235.242 60.016 237.882 60.456 240.522 60.456C248.354 60.456 254.338 56.936 254.338 48.136C254.338 41.184 250.818 33.088 236.826 33.088C232.074 33.088 231.722 33.616 231.722 35.376ZM231.722 10.12V27.984C231.722 30.448 231.81 30.624 236.298 30.448C245.274 30.096 250.114 27.456 250.114 19.184C250.114 10.56 243.69 7.304 237.002 7.304C235.066 7.304 233.746 7.48 232.954 7.832C232.074 8.096 231.722 8.536 231.722 10.12ZM284.828 27.016C294.684 27.016 302.692 34.408 302.692 45.232C302.692 56.232 295.124 64.152 284.124 64.152C274.004 64.152 266.084 57.024 266.084 46.024C266.084 34.936 274.444 27.016 284.828 27.016ZM295.124 46.64C295.124 39.16 292.132 29.656 283.772 29.656C277.964 29.656 273.652 35.2 273.652 44.88C273.652 52.888 277.26 61.512 285.004 61.512C292.748 61.512 295.124 53.416 295.124 46.64ZM324.105 27.016C333.961 27.016 341.969 34.408 341.969 45.232C341.969 56.232 334.401 64.152 323.401 64.152C313.281 64.152 305.361 57.024 305.361 46.024C305.361 34.936 313.721 27.016 324.105 27.016ZM334.401 46.64C334.401 39.16 331.409 29.656 323.049 29.656C317.241 29.656 312.929 35.2 312.929 44.88C312.929 52.888 316.537 61.512 324.281 61.512C332.025 61.512 334.401 53.416 334.401 46.64ZM349.301 53.064V13.288C349.301 8.096 349.213 7.56801 346.573 5.984L345.693 5.456C345.253 5.192 345.253 3.96 345.693 3.696C347.893 2.992 352.029 1.672 355.197 2.86102e-06C355.549 2.86102e-06 355.901 0.176001 356.077 0.528001C355.989 3.168 355.813 7.56801 355.813 11.44V41.624C355.813 42.768 355.901 42.944 357.397 42.944C359.333 42.944 361.005 41.976 363.381 39.512L366.989 35.64C369.453 33 370.069 32.032 370.069 31.592C370.069 31.152 369.629 30.888 368.133 30.712L366.021 30.448C365.229 30.184 365.229 28.512 366.021 28.248H368.045C371.917 28.248 377.109 28.072 382.037 27.544C382.653 27.808 382.741 29.304 382.213 29.744L379.397 30.272C377.637 30.624 376.141 31.504 373.853 33.352C370.421 36.08 367.429 39.248 365.845 40.744C364.789 41.712 364.701 42.152 365.229 42.856C366.725 44.88 368.133 46.552 371.125 49.896C374.557 53.768 377.637 57.2 379.397 58.872C380.629 60.016 382.389 60.544 383.973 60.808L385.205 60.984C385.821 61.424 385.733 62.92 385.029 63.184C382.477 63.008 379.485 62.92 376.669 62.92C373.149 62.92 370.069 63.008 367.517 63.184C366.813 62.832 366.725 61.336 367.341 60.984L368.925 60.72C370.245 60.544 371.125 60.368 371.125 59.84C371.125 59.312 370.773 58.696 369.629 57.376L360.213 46.464C359.421 45.584 358.453 45.232 357.485 45.232C355.901 45.232 355.813 45.496 355.813 48.224V53.064C355.813 59.4 355.989 60.28 359.157 60.72L361.269 60.984C361.885 61.424 361.709 62.92 361.093 63.184C358.189 63.008 355.637 62.92 352.557 62.92C349.389 62.92 346.749 63.008 344.109 63.184C343.493 62.92 343.317 61.424 344.021 60.984L345.957 60.72C349.213 60.28 349.301 59.4 349.301 53.064ZM396.859 27.016C400.555 27.016 403.811 27.896 404.603 28.6C405.395 30.536 406.011 33.352 406.011 35.728C405.659 36.344 404.339 36.52 403.899 35.992C402.403 32.12 399.763 29.568 396.155 29.568C392.723 29.568 390.523 31.768 390.523 34.936C390.523 38.544 394.219 40.48 397.299 42.24C401.963 44.88 406.275 47.872 406.275 54.12C406.275 60.808 400.115 64.152 393.603 64.152C389.467 64.152 386.387 63.272 384.187 61.512C383.483 59.84 382.955 55.528 383.131 52.624C383.571 52.096 384.715 52.008 385.155 52.536C386.651 57.376 389.467 61.6 394.483 61.6C397.651 61.6 400.379 59.752 400.379 55.968C400.379 51.92 396.859 49.72 393.603 47.872C388.499 44.968 384.891 41.888 384.891 37.048C384.891 30.624 390.171 27.016 396.859 27.016Z" fill="white"/>
</svg>
