<svg width="439" height="81" viewBox="0 0 439 81" fill="none" xmlns="http://www.w3.org/2000/svg">
<path d="M15.1359 10.472V49.72C15.1359 58.96 15.3119 60.104 20.9439 60.72L23.3199 60.984C23.8479 61.424 23.6719 62.92 23.1439 63.184C18.1279 63.008 15.2239 62.92 11.7039 62.92C8.00788 62.92 4.83988 63.008 0.967884 63.184C0.439884 62.92 0.263884 61.512 0.791884 60.984L2.63988 60.72C7.74388 60.016 7.91988 58.96 7.91988 49.72V17.248C7.91988 9.768 7.74388 8.272 3.78388 7.832L0.615884 7.48C-0.000115991 6.952 0.0878839 5.632 0.791884 5.28C5.45588 4.664 10.9119 4.576 18.2159 4.576C25.5199 4.576 30.9759 5.544 35.1119 8.096C39.1599 10.648 42.1519 15.224 42.1519 21.296C42.1519 29.392 37.1359 33.44 33.3519 35.288C29.4799 37.136 24.8159 37.928 21.2079 37.928C20.5919 37.664 20.5919 36.344 21.1199 36.168C30.6239 34.408 34.0559 29.04 34.0559 21.384C34.0559 12.848 29.0399 7.304 19.8879 7.304C15.2239 7.304 15.1359 7.656 15.1359 10.472ZM48.1214 48.488L58.5934 44.704C59.9134 44.264 60.0894 43.472 60.0894 42.152L60.1774 38.104C60.2654 34.848 59.2094 30.448 53.7534 30.448C51.2894 30.448 48.2974 31.68 48.1214 34.408C48.0334 35.816 47.9454 36.872 47.2414 37.4C45.9214 38.456 43.5454 39.072 42.2254 39.072C41.4334 39.072 40.9934 38.632 40.9934 37.84C40.9934 33.264 50.9374 27.016 57.3614 27.016C63.6974 27.016 66.7774 30.712 66.5134 37.312L65.9854 52.624C65.8094 56.672 66.6014 60.28 70.0334 60.28C70.9134 60.28 71.7054 60.016 72.2334 59.752C72.6734 59.488 73.1134 59.136 73.3774 59.136C73.7294 59.136 73.9934 59.664 73.9934 60.28C73.9934 60.72 70.9134 64.152 66.6014 64.152C64.4894 64.152 62.3774 63.36 60.8814 61.424C60.5294 60.896 60.0014 60.192 59.4734 60.192C58.8574 60.192 57.8014 60.984 56.0414 61.952C54.1054 63.008 52.1694 64.152 49.7054 64.152C47.1534 64.152 45.0414 63.448 43.5454 62.128C41.8734 60.632 40.8174 58.432 40.8174 55.968C40.8174 52.536 42.4894 50.512 48.1214 48.488ZM47.5934 54.912C47.5934 56.408 48.6494 60.192 53.1374 60.192C54.8974 60.192 57.6254 58.872 58.5054 57.992C59.5614 56.936 59.5614 55.704 59.6494 53.856L59.8254 48.664C59.8254 47.696 59.4734 47.52 58.9454 47.52C58.4174 47.52 56.9214 47.872 55.3374 48.4C50.1454 50.16 47.5934 51.48 47.5934 54.912ZM94.2596 27.016C96.2836 27.016 99.7156 27.456 102.092 28.512C102.796 29.128 103.412 30.536 103.412 32.032C103.412 33.616 102.532 35.288 101.476 35.288C101.036 35.288 100.596 35.112 100.244 34.672C98.3076 32.296 95.0516 30.008 91.4436 30.008C85.2836 30.008 79.2996 34.848 79.2996 44.176C79.2996 51.04 84.0516 59.224 93.4676 59.224C98.5716 59.224 101.212 56.936 103.236 53.944C103.94 53.768 104.732 54.384 104.82 55.176C101.828 61.688 95.2276 64.152 90.1236 64.152C85.4596 64.152 81.1476 62.656 78.0676 59.664C74.9876 56.672 72.9636 52.36 72.9636 46.64C72.9636 37.136 79.6516 27.016 94.2596 27.016ZM110.134 53.064V37.664C110.134 34.232 110.134 33.792 107.758 32.208L106.966 31.68C106.614 31.328 106.614 30.36 107.054 30.096C109.078 29.392 114.094 27.104 116.118 25.784C116.558 25.784 116.91 25.96 116.998 26.312C116.822 29.392 116.646 33.616 116.646 37.224V53.064C116.646 59.4 116.822 60.28 119.99 60.72L121.838 60.984C122.454 61.424 122.278 62.92 121.662 63.184C119.022 63.008 116.47 62.92 113.39 62.92C110.222 62.92 107.582 63.008 105.118 63.184C104.502 62.92 104.326 61.424 104.942 60.984L106.79 60.72C110.046 60.28 110.134 59.4 110.134 53.064ZM113.038 8.008C115.678 8.008 117.438 10.12 117.438 12.584C117.438 15.752 115.238 17.16 112.774 17.16C110.046 17.16 108.286 15.136 108.286 12.76C108.286 9.856 110.398 8.008 113.038 8.008ZM128.952 53.064V34.496C128.952 32.12 128.952 31.944 127.192 31.944H124.112C123.584 31.592 123.496 30.8 123.848 30.272L127.632 28.424C128.336 28.072 128.952 27.544 128.952 26.664C128.952 21.648 129.656 16.544 131.68 11.88C133.528 7.392 138.896 2.86102e-06 148.752 2.86102e-06C154.736 2.86102e-06 159.664 3.168 159.664 6.864C159.664 9.504 157.376 10.472 156.056 10.472C154.824 10.472 154.208 9.856 153.768 9.15201C151.216 4.84 147.784 3.344 145.496 3.344C138.632 3.344 135.464 10.912 135.464 24.552V25.52C135.464 27.72 135.64 28.248 137.136 28.248H146.992C150.864 28.248 156.408 27.72 158.52 26.928C158.872 26.928 159.224 27.104 159.4 27.368C159.224 30.536 159.048 34.76 159.048 38.368V53.064C159.048 59.4 159.224 60.28 162.392 60.72L164.24 60.984C164.856 61.424 164.68 62.92 164.064 63.184C161.424 63.008 158.872 62.92 155.792 62.92C152.624 62.92 149.984 63.008 147.52 63.184C146.904 62.92 146.728 61.424 147.344 60.984L149.192 60.72C152.448 60.28 152.536 59.4 152.536 53.064V37.752C152.536 32.384 151.92 31.944 148.136 31.944H137.136C135.64 31.944 135.464 32.56 135.464 34.672V53.064C135.464 59.4 135.64 60.456 138.808 60.72L141.624 60.984C142.24 61.424 142.064 62.92 141.448 63.184C137.84 63.008 135.288 62.92 132.208 62.92C129.04 62.92 126.4 63.008 123.76 63.184C123.144 62.92 122.968 61.424 123.584 60.984L125.608 60.72C128.864 60.28 128.952 59.4 128.952 53.064ZM187.512 27.016C189.536 27.016 192.968 27.456 195.344 28.512C196.048 29.128 196.664 30.536 196.664 32.032C196.664 33.616 195.784 35.288 194.728 35.288C194.288 35.288 193.848 35.112 193.496 34.672C191.56 32.296 188.304 30.008 184.696 30.008C178.536 30.008 172.552 34.848 172.552 44.176C172.552 51.04 177.304 59.224 186.72 59.224C191.824 59.224 194.464 56.936 196.488 53.944C197.192 53.768 197.984 54.384 198.072 55.176C195.08 61.688 188.48 64.152 183.376 64.152C178.712 64.152 174.4 62.656 171.32 59.664C168.24 56.672 166.216 52.36 166.216 46.64C166.216 37.136 172.904 27.016 187.512 27.016ZM225.826 51.48V18.216C225.826 8.448 224.946 7.392 219.754 6.952L217.554 6.776C217.026 6.424 217.202 4.84 217.73 4.576C222.834 4.752 225.826 4.84 229.522 4.84C233.042 4.84 236.034 4.752 239.554 4.576C240.082 4.84 240.258 6.424 239.73 6.776L238.41 6.952C233.218 7.656 233.042 8.888 233.042 18.216V50.864C233.042 57.816 232.69 63.888 231.018 67.936C228.114 74.976 221.866 80.608 213.682 80.608C212.626 80.608 209.898 80.52 209.898 78.76C209.898 77.264 211.218 74.712 213.066 74.712C214.122 74.712 215.178 74.888 216.322 75.24C217.554 75.592 218.786 75.856 220.018 75.856C221.866 75.856 222.922 74.8 223.538 73.568C225.562 69.432 225.826 56.232 225.826 51.48ZM259.218 27.016C269.074 27.016 277.082 34.408 277.082 45.232C277.082 56.232 269.514 64.152 258.514 64.152C248.394 64.152 240.474 57.024 240.474 46.024C240.474 34.936 248.834 27.016 259.218 27.016ZM269.514 46.64C269.514 39.16 266.522 29.656 258.162 29.656C252.354 29.656 248.042 35.2 248.042 44.88C248.042 52.888 251.65 61.512 259.394 61.512C267.138 61.512 269.514 53.416 269.514 46.64ZM290.663 35.288V49.984C290.663 56.056 292.159 60.104 298.847 60.104C301.223 60.104 304.039 59.136 305.975 57.464C307.119 56.408 307.735 55.088 307.735 52.36V37.928C307.735 32.208 307.119 32.032 304.479 30.976L303.335 30.536C302.719 30.184 302.719 28.952 303.423 28.6C306.943 28.512 311.783 27.896 313.719 27.016C314.159 27.104 314.423 27.28 314.511 27.632C314.335 29.304 314.247 32.032 314.247 35.288V50.072C314.247 57.024 314.511 59.664 316.975 59.664C318.031 59.664 319.175 59.488 320.407 59.224C320.935 59.664 321.023 61.424 320.319 61.776C316.887 62.48 311.783 63.36 308.791 65.032C308.351 65.032 307.911 64.768 307.735 64.416V60.808C307.735 60.016 307.471 59.576 306.943 59.576C304.303 61.248 299.991 64.152 294.799 64.152C287.055 64.152 284.151 60.28 284.151 53.152V38.456C284.151 32.912 284.151 32.12 281.511 30.976L280.455 30.536C279.927 30.096 280.015 28.864 280.631 28.6C284.679 28.512 288.111 27.72 290.047 27.016C290.575 27.104 290.839 27.28 290.927 27.632C290.751 29.128 290.663 30.976 290.663 35.288ZM326.806 53.064V37.664C326.806 34.232 326.806 33.792 324.43 32.208L323.638 31.68C323.286 31.328 323.286 30.36 323.726 30.096C325.75 29.392 330.414 27.104 332.614 25.784C333.054 25.872 333.318 26.048 333.318 26.4V31.504C333.318 31.944 333.406 32.208 333.582 32.296C336.662 29.744 340.006 27.016 343.262 27.016C345.462 27.016 347.222 28.424 347.222 30.536C347.222 33.44 344.846 34.584 343.438 34.584C342.558 34.584 342.118 34.32 341.502 33.968C340.182 33.088 338.862 32.56 337.63 32.56C336.222 32.56 335.166 33.352 334.462 34.32C333.582 35.552 333.318 38.104 333.318 41.096V53.064C333.318 59.4 333.494 60.456 336.838 60.72L340.006 60.984C340.622 61.424 340.446 62.92 339.83 63.184C335.694 63.008 333.142 62.92 330.062 62.92C326.894 62.92 324.254 63.008 321.966 63.184C321.35 62.92 321.174 61.424 321.79 60.984L323.462 60.72C326.718 60.192 326.806 59.4 326.806 53.064ZM352.505 53.064V37.664C352.505 34.232 352.505 33.792 350.129 32.208L349.337 31.68C348.985 31.328 348.985 30.36 349.425 30.096C351.449 29.392 356.465 27.104 358.225 25.784C358.577 25.784 359.017 25.96 359.193 26.4C359.017 28.424 359.017 29.744 359.017 30.536C359.017 31.064 359.369 31.504 359.985 31.504C363.681 29.216 367.817 27.016 372.305 27.016C379.609 27.016 382.601 32.032 382.601 37.928V53.064C382.601 59.4 382.777 60.28 385.945 60.72L387.881 60.984C388.497 61.424 388.321 62.92 387.705 63.184C385.065 63.008 382.513 62.92 379.433 62.92C376.265 62.92 373.625 63.008 371.249 63.184C370.633 62.92 370.457 61.424 371.073 60.984L372.745 60.72C376.001 60.192 376.089 59.4 376.089 53.064V39.952C376.089 34.936 373.801 31.24 367.817 31.24C364.473 31.24 361.569 32.648 360.337 34.32C359.193 35.816 359.017 37.048 359.017 39.6V53.064C359.017 59.4 359.193 60.192 362.361 60.72L363.945 60.984C364.561 61.424 364.385 62.92 363.769 63.184C361.393 63.008 358.841 62.92 355.761 62.92C352.593 62.92 349.953 63.008 347.489 63.184C346.873 62.92 346.697 61.424 347.313 60.984L349.161 60.72C352.417 60.28 352.505 59.4 352.505 53.064ZM396.98 48.488L407.452 44.704C408.772 44.264 408.948 43.472 408.948 42.152L409.036 38.104C409.124 34.848 408.068 30.448 402.612 30.448C400.148 30.448 397.156 31.68 396.98 34.408C396.892 35.816 396.804 36.872 396.1 37.4C394.78 38.456 392.404 39.072 391.084 39.072C390.292 39.072 389.852 38.632 389.852 37.84C389.852 33.264 399.796 27.016 406.22 27.016C412.556 27.016 415.636 30.712 415.372 37.312L414.844 52.624C414.668 56.672 415.46 60.28 418.892 60.28C419.772 60.28 420.564 60.016 421.092 59.752C421.532 59.488 421.972 59.136 422.236 59.136C422.588 59.136 422.852 59.664 422.852 60.28C422.852 60.72 419.772 64.152 415.46 64.152C413.348 64.152 411.236 63.36 409.74 61.424C409.388 60.896 408.86 60.192 408.332 60.192C407.716 60.192 406.66 60.984 404.9 61.952C402.964 63.008 401.028 64.152 398.564 64.152C396.012 64.152 393.9 63.448 392.404 62.128C390.732 60.632 389.676 58.432 389.676 55.968C389.676 52.536 391.348 50.512 396.98 48.488ZM396.452 54.912C396.452 56.408 397.508 60.192 401.996 60.192C403.756 60.192 406.484 58.872 407.364 57.992C408.42 56.936 408.42 55.704 408.508 53.856L408.684 48.664C408.684 47.696 408.332 47.52 407.804 47.52C407.276 47.52 405.78 47.872 404.196 48.4C399.004 50.16 396.452 51.48 396.452 54.912ZM432.91 11.44V53.064C432.91 59.4 433.086 60.28 436.254 60.72L438.366 60.984C438.982 61.424 438.806 62.92 438.19 63.184C435.286 63.008 432.734 62.92 429.654 62.92C426.486 62.92 423.846 63.008 421.206 63.184C420.59 62.92 420.414 61.424 421.03 60.984L423.054 60.72C426.31 60.28 426.398 59.4 426.398 53.064V13.288C426.398 8.096 426.31 7.56801 423.67 5.984L422.79 5.456C422.35 5.192 422.35 3.96 422.79 3.696C424.99 2.992 429.126 1.672 432.294 2.86102e-06C432.646 2.86102e-06 432.998 0.176001 433.174 0.528001C433.086 3.168 432.91 7.56801 432.91 11.44Z" fill="white"/>
</svg>
